<svg xmlns="http://www.w3.org/2000/svg" viewBox="0 0 256 256" role="img" aria-label="Rabbit desk pet">
  <rect width="256" height="256" rx="48" fill="#fdf4ff"/>
  <path d="M88 103C70 54 72 20 93 14c22-6 39 29 45 78" fill="#f5d0fe"/>
  <path d="M151 93c4-50 20-85 43-80 21 5 25 39 9 89" fill="#f5d0fe"/>
  <path d="M100 97C87 55 89 31 98 29c10-3 24 25 29 69" fill="#f0abfc"/>
  <path d="M164 96c5-45 18-70 28-68 9 2 13 26 2 70" fill="#f0abfc"/>
  <circle cx="128" cy="145" r="73" fill="#faf5ff"/>
  <path d="M68 160c13 38 47 60 83 56 31-4 57-28 66-59-29 17-59 20-89 8-24-10-43-12-60-5z" fill="#f3e8ff"/>
  <circle cx="101" cy="132" r="8" fill="#1e293b"/>
  <circle cx="155" cy="132" r="8" fill="#1e293b"/>
  <path d="M128 149l-10 9 10 8 10-8-10-9z" fill="#fb7185"/>
  <path d="M119 170c5 8 13 8 18 0" fill="none" stroke="#64748b" stroke-width="6" stroke-linecap="round"/>
  <path d="M55 143l39 7M55 166l40-4M201 143l-39 7M201 166l-40-4" stroke="#c084fc" stroke-width="6" stroke-linecap="round"/>
  <circle cx="89" cy="154" r="12" fill="#fbcfe8" opacity=".8"/>
  <circle cx="167" cy="154" r="12" fill="#fbcfe8" opacity=".8"/>
</svg>
