<?xml version="1.0" encoding="UTF-8"?>
<svg xmlns="http://www.w3.org/2000/svg" viewBox="187.73 262.03 637.01 466.73" fill="none" shape-rendering="geometricPrecision" role="img" aria-label="Logo" preserveAspectRatio="xMidYMid meet">
  <defs>
    <linearGradient id="fileLogoPrimary" x1="18%" y1="92%" x2="82%" y2="8%">
      <stop offset="0%" stop-color="#7DD3FC"/>
      <stop offset="42%" stop-color="#5CB8FA"/>
      <stop offset="100%" stop-color="#3D94EB"/>
    </linearGradient>
  </defs>
  <g stroke-linejoin="round" stroke-linecap="round">
    <path
      fill="url(#fileLogoPrimary)"
      fill-rule="evenodd"
      d="M648.000000,680.693726 
	C672.419373,680.375427 695.297852,674.913147 717.535645,666.416992 
	C742.248291,656.975342 765.187927,644.197754 787.056396,629.393494 
	C799.351318,621.070251 813.975647,626.226562 816.836914,640.013428 
	C818.624023,648.624207 814.781982,655.238220 808.095459,660.389771 
	C796.599976,669.246582 784.672974,677.494629 772.041748,684.639160 
	C742.679016,701.247253 711.757507,713.686584 678.203491,718.791992 
	C643.833191,724.021790 610.458252,721.781555 579.042175,705.252136 
	C571.471741,701.269043 564.559875,696.350891 558.389404,690.453796 
	C555.528931,687.720032 553.075500,687.062378 549.157227,688.925293 
	C527.698059,699.127747 505.392639,706.947876 481.705414,709.891357 
	C438.817200,715.220947 400.141693,706.483948 368.929016,674.529419 
	C357.714661,663.048523 349.894775,649.319336 344.183197,634.387390 
	C341.622437,627.692749 341.374420,627.473083 335.061890,630.784668 
	C313.034637,642.340393 290.506439,652.664307 266.221344,658.611511 
	C249.982040,662.588318 233.627701,665.398682 216.786545,663.259949 
	C207.417175,662.070129 199.719482,658.657898 196.389572,648.986511 
	C192.176880,636.751221 199.519241,623.825562 212.268784,621.795166 
	C219.305649,620.674622 226.534866,620.826172 233.639923,620.057983 
	C258.037140,617.420288 281.081787,609.799133 303.648376,600.571838 
	C310.269531,597.864441 316.727386,594.750000 323.213501,591.722290 
	C329.201141,588.927246 331.469818,584.239990 331.118622,577.578979 
	C329.950745,555.428101 330.649170,533.421021 334.297485,511.396484 
	C342.425903,462.325775 359.227509,416.535248 384.626312,373.904816 
	C402.937103,343.171265 424.957886,315.429749 454.095764,294.164581 
	C475.545044,278.510620 499.179779,268.772797 526.485352,269.539886 
	C556.220886,270.375214 577.742371,287.531830 584.221924,316.619537 
	C589.688477,341.159760 585.050354,364.628510 575.936218,387.430908 
	C562.187317,421.828827 541.443298,451.974243 518.193359,480.484558 
	C480.648010,526.524658 437.357788,566.231323 387.307861,598.425903 
	C380.066620,603.083801 379.251831,605.536682 381.902496,613.884033 
	C390.499756,640.958923 408.090393,659.279236 435.593658,666.942261 
	C450.838837,671.189880 466.583801,670.769897 482.208252,668.319885 
	C498.434937,665.775513 513.829529,660.531982 528.833374,653.984985 
	C531.926636,652.635254 532.981873,651.013855 531.954041,647.441650 
	C523.376404,617.631165 529.911255,590.040833 545.487061,564.274109 
	C560.639282,539.208252 581.526855,520.241638 609.023438,509.411743 
	C630.200745,501.070770 651.892212,498.648895 673.843079,506.664307 
	C697.294739,515.227722 708.825012,536.287231 703.780518,560.763855 
	C699.295410,582.526001 686.328003,598.985901 670.639526,613.633789 
	C650.989136,631.980835 627.862427,645.291382 604.654968,658.459412 
	C601.464600,660.269592 596.416260,661.236633 596.669983,665.730957 
	C596.915161,670.074036 601.934875,670.772278 605.245422,672.409119 
	C618.563049,678.993713 632.945068,680.376038 648.000000,680.693726 
	M511.552124,415.085083 
	C521.608032,399.953491 531.178101,384.546326 537.883362,367.565277 
	C541.934875,357.304749 545.197144,346.873230 544.709839,335.606140 
	C544.171692,323.162292 535.970398,313.407074 524.756897,312.386597 
	C518.072449,311.778259 511.514282,312.392944 505.075684,314.631317 
	C483.706909,322.060181 467.633362,336.684875 453.121002,353.190094 
	C432.069305,377.132538 415.842224,404.258850 402.580170,433.135315 
	C387.483948,466.005341 377.047577,500.267090 373.453125,536.409973 
	C372.893738,542.034607 372.480286,547.689453 372.366547,553.337646 
	C372.273682,557.951660 374.377319,559.008545 378.278137,556.473083 
	C380.782867,554.845154 383.096436,552.910767 385.425629,551.027039 
	C397.602051,541.179199 409.279541,530.770142 420.664337,520.014282 
	C454.295654,488.240784 484.999359,453.943390 511.552124,415.085083 
	M652.831238,572.345154 
	C656.206970,568.176636 659.006470,563.660583 660.807129,558.592407 
	C663.918762,549.834106 660.288269,543.260620 651.187439,541.606323 
	C645.600281,540.590759 639.940613,540.606750 634.354736,542.031311 
	C615.270325,546.898438 600.642273,558.406921 588.864319,573.581665 
	C577.322998,588.451599 569.311035,604.897217 570.276123,624.469482 
	C570.534363,629.706665 572.122070,630.727051 576.865112,628.458618 
	C586.942444,623.639038 596.398926,617.709595 605.732239,611.628052 
	C622.766418,600.528870 639.408813,588.902710 652.831238,572.345154 
	z"
    />
  </g>
</svg>
